<svg width="48" height="48" viewBox="0 0 48 48" fill="none" xmlns="http://www.w3.org/2000/svg">
<g clip-path="url(#clip0_2_103)">
<path d="M4.35398 42.4615L0 0H47.8938L43.5398 42.4615L23.8938 47.2615" fill="#0C73B8"/>
<path d="M24 43.5693L39.823 39.7846L43.5398 3.41541H24" fill="#30A9DC"/>
<path d="M24.0001 19.2H9.98236L10.5133 24.4615H24.0001V19.2ZM24.0001 8.67688H8.92041L9.45138 13.8461H24.0001V8.67688ZM24.0001 32.7692L10.8319 29.723L11.5753 35.2615L24.0001 38.2153V32.7692Z" fill="#181B21"/>
<path d="M24 24.4615H31.3274L30.5841 31.2L24 32.7692V38.2153L36.2124 35.2615L38.9735 8.67688H24V13.8461H32.4956L31.8584 19.2H24V24.4615Z" fill="#23272F"/>
</g>
<defs>
<clipPath id="clip0_2_103">
<rect width="48" height="48" fill="white"/>
</clipPath>
</defs>
</svg>
