<svg width="258" height="127" viewBox="0 0 258 127" fill="none" xmlns="http://www.w3.org/2000/svg">
<g clip-path="url(#clip0_2_156)">
<path d="M1.85158 80.3243C0.624655 74.8715 0 69.2078 0 63.5034C0 37.4628 13.4014 13.6524 33.3501 4.26294L35.9656 12.5238C18.7943 20.6079 7.26118 41.0934 7.26118 63.5034C7.26118 68.4191 7.79654 73.2871 8.85059 77.9785L1.85158 80.3243Z" fill="#69D3A7"/>
<path d="M92.0363 38.3469C84.2733 20.1593 68.9924 8.8592 52.1669 8.8592C46.2051 8.8592 40.4107 10.2598 34.9565 13.0134L32.1736 4.83412C38.5145 1.63177 45.2403 0 52.1669 0C71.7139 0 89.4598 13.1222 98.4776 34.2538L92.0363 38.3469Z" fill="url(#paint0_linear_2_156)"/>
<path d="M36.5905 50.4015C40.8008 50.4015 44.2307 53.1416 45.9931 57.9213L46.1325 58.2954L53.2039 55.3649L53.0535 54.923C50.3152 46.7844 44.0076 41.7259 36.5905 41.7259C31.3758 41.7259 27.1375 43.7658 23.6352 47.9539C20.1551 52.115 18.3928 57.3503 18.3928 63.5169C18.3928 69.6293 20.1551 74.8374 23.6352 78.9985C27.1375 83.1869 31.3758 85.2265 36.5905 85.2265C44.0076 85.2265 50.3152 80.168 53.0535 72.0363L53.2039 71.5944L46.1213 68.657L45.9875 69.0446C44.4092 73.7428 40.8958 76.5508 36.5905 76.5508C33.6568 76.5508 31.1807 75.2999 29.2175 72.8385C27.2322 70.3432 26.2284 67.2089 26.2284 63.5238C26.2284 59.8114 27.2099 56.7383 29.2175 54.1274C31.1751 51.6528 33.6568 50.4015 36.5905 50.4015ZM123.73 47.9608C120.467 43.8269 116.396 41.7259 111.622 41.7259C106.882 41.7259 102.978 43.7862 100.011 47.8451V42.5283H92.3707V100.463H100.011V79.1072C102.978 83.1665 106.876 85.2265 111.622 85.2265C116.396 85.2265 120.473 83.1255 123.735 78.985C126.948 74.8239 128.57 69.6225 128.57 63.5169C128.565 57.3503 126.942 52.1219 123.73 47.9608ZM117.74 72.825C115.783 75.293 113.301 76.5373 110.373 76.5373C107.401 76.5373 104.991 75.3203 103 72.825C101.015 70.3297 100.011 67.1954 100.011 63.5103C100.011 59.7165 100.987 56.6431 103 54.1139C104.986 51.6117 107.395 50.4015 110.373 50.4015C113.306 50.4015 115.783 51.6528 117.74 54.1139C119.709 56.5888 120.662 59.662 120.662 63.5103C120.662 67.3042 119.703 70.3501 117.74 72.825ZM141.007 47.5189V42.5283H133.366V84.4174H141.007V60.7838C141.007 56.9968 142.256 54.1004 144.721 52.1761C147.169 50.2655 150.109 49.9121 153.706 51.1088L154.168 51.2651V42.304L153.884 42.2222C149.054 40.8149 144.208 42.8411 141.007 47.5189ZM173.989 41.7259C168.953 41.7259 164.681 43.82 161.29 47.9539C157.855 52.1422 156.115 57.3775 156.115 63.5169C156.115 69.6293 157.877 74.8374 161.357 78.9985C164.86 83.1869 169.098 85.2265 174.312 85.2265C181.378 85.2265 187.452 80.8479 190.564 73.5116L190.742 73.0901L184.278 69.5955L184.122 69.9693C182.248 74.3887 178.651 77.0268 174.513 77.0268C169.137 77.0268 165.021 73.0221 163.906 66.7737H191.623L191.657 66.3726C192.259 59.6143 190.831 53.7535 187.424 48.9466C184.033 44.1531 179.51 41.7259 173.989 41.7259ZM164.134 59.2947C165.49 53.5768 169.315 49.9189 173.989 49.9189C178.791 49.9189 182.617 53.5768 183.854 59.2947H164.134ZM212.069 59.5191C207.903 58.5674 204.306 57.7379 204.306 54.2023C204.306 51.3943 206.754 49.4361 210.256 49.4361C214.121 49.4361 216.24 51.4623 216.736 55.63L216.792 56.0993L224.432 54.148L224.378 53.7263C223.35 46.3222 217.941 41.7192 210.262 41.7192C206.408 41.7192 203.145 42.9363 200.569 45.3364C197.937 47.7229 196.604 50.8368 196.604 54.6034C196.604 60.0562 199.437 64.1493 204.194 65.55C205.427 65.9035 206.731 66.189 207.992 66.4747C212.727 67.5285 217.199 68.5279 217.199 72.417C217.199 75.4155 214.344 77.5028 210.262 77.5028C206.107 77.5028 203.815 75.4766 203.252 71.302L203.19 70.8395L195.555 72.7911L195.617 73.2192C196.727 80.7323 202.197 85.2196 210.256 85.2196C214.35 85.2196 217.858 83.9756 220.668 81.5279C223.48 79.1072 224.9 75.9865 224.9 72.2537C224.9 62.4631 217.791 60.8314 212.069 59.5191ZM245.167 59.5191C241.002 58.5674 237.406 57.7379 237.406 54.2023C237.406 51.3943 239.853 49.4361 243.355 49.4361C247.22 49.4361 249.339 51.4623 249.835 55.63L249.891 56.0993L257.532 54.148L257.475 53.7263C256.45 46.3222 251.04 41.7192 243.361 41.7192C239.506 41.7192 236.243 42.9363 233.668 45.3364C231.036 47.7229 229.702 50.8368 229.702 54.6034C229.702 60.0562 232.536 64.1493 237.293 65.55C238.526 65.9035 239.829 66.189 241.091 66.4747C245.826 67.5285 250.299 68.5279 250.299 72.417C250.299 75.4155 247.444 77.5028 243.361 77.5028C239.205 77.5028 236.913 75.4766 236.35 71.302L236.289 70.8395L228.655 72.7911L228.716 73.2192C229.826 80.7323 235.296 85.2196 243.355 85.2196C247.448 85.2196 250.956 83.9756 253.768 81.5279C256.578 79.1072 258 75.9865 258 72.2537C258 62.4631 250.889 60.8314 245.167 59.5191Z" fill="#F5F5F5"/>
<path d="M80.8821 42.5283L70.8047 73.6476L60.6603 42.5283H52.3618L66.5885 85.0021L56.4664 114.959L63.7221 116.72L88.7233 42.5283H80.8821Z" fill="#F5F5F5"/>
<path d="M57.7646 111.097L55.9967 116.319C55.6453 117.352 54.8423 118.052 53.9388 118.1C53.3422 118.127 52.7399 118.148 52.132 118.148C31.3244 118.134 12.9149 100.232 8.353 75.5649L1.27026 77.5162C3.83008 91.3524 10.2547 103.91 19.3619 112.885C28.575 121.962 40.1805 126.973 52.0539 127H52.1597C52.857 127 53.5484 126.98 54.24 126.946C57.9654 126.755 61.2949 123.906 62.7169 119.684L65.0257 112.858L57.7646 111.097Z" fill="url(#paint1_linear_2_156)"/>
</g>
<defs>
<linearGradient id="paint0_linear_2_156" x1="46.7387" y1="-4.09951" x2="94.7489" y2="37.9484" gradientUnits="userSpaceOnUse">
<stop offset="0.0939" stop-color="#58D09E"/>
<stop offset="0.9883" stop-color="#58D09E" stop-opacity="0"/>
</linearGradient>
<linearGradient id="paint1_linear_2_156" x1="-0.556017" y1="92.3964" x2="76.7783" y2="109.263" gradientUnits="userSpaceOnUse">
<stop offset="0.0774" stop-color="#58D09E"/>
<stop offset="0.7617" stop-color="#58D09E"/>
</linearGradient>
<clipPath id="clip0_2_156">
<rect width="258" height="127" fill="white"/>
</clipPath>
</defs>
</svg>
