<svg width="48" height="48" viewBox="0 0 48 48" fill="none" xmlns="http://www.w3.org/2000/svg">
<g clip-path="url(#clip0_2_162)">
<path d="M47.0944 21.8625L26.1376 0.903762C25.5578 0.324518 24.7718 -0.000854492 23.9522 -0.000854492C23.1327 -0.000854492 22.3467 0.324518 21.7669 0.903762L17.4151 5.25376L22.9351 10.7756C23.5861 10.5535 24.2864 10.5189 24.9561 10.6756C25.6259 10.8324 26.2381 11.1742 26.7229 11.6622C27.2077 12.1501 27.5456 12.7645 27.6981 13.4352C27.8505 14.106 27.8113 14.8061 27.585 15.4556L32.9044 20.7769C33.6995 20.5035 34.5643 20.5109 35.3546 20.7979C36.1449 21.0848 36.813 21.6339 37.2475 22.3537C37.6821 23.0735 37.8568 23.9205 37.7426 24.7534C37.6284 25.5864 37.2322 26.3551 36.62 26.9314C36.0077 27.5077 35.2165 27.8567 34.3781 27.9203C33.5398 27.984 32.7049 27.7584 32.0127 27.2811C31.3205 26.8039 30.8128 26.1038 30.5742 25.2976C30.3355 24.4914 30.3804 23.6278 30.7013 22.8506L25.7401 17.8875V30.945C26.4941 31.3179 27.0977 31.938 27.45 32.7019C27.8023 33.4658 27.8822 34.3274 27.6763 35.143C27.4704 35.9587 26.9912 36.6792 26.3185 37.1843C25.6458 37.6895 24.8202 37.9488 23.9795 37.9191C23.1388 37.8894 22.3337 37.5724 21.6983 37.021C21.0629 36.4697 20.6357 35.7172 20.4879 34.889C20.3401 34.0609 20.4806 33.2071 20.886 32.4699C21.2914 31.7328 21.9371 31.1569 22.7157 30.8381V17.6625C22.2665 17.4785 21.8582 17.2074 21.5144 16.8647C21.1705 16.5221 20.8979 16.1148 20.7122 15.6663C20.5266 15.2178 20.4316 14.737 20.4327 14.2516C20.4338 13.7662 20.5311 13.2858 20.7188 12.8381L15.2738 7.39501L0.905676 21.765C0.325858 22.3448 0.00012207 23.1313 0.00012207 23.9513C0.00012207 24.7713 0.325858 25.5577 0.905676 26.1375L21.8626 47.0944C22.4424 47.6742 23.2288 47.9999 24.0488 47.9999C24.8688 47.9999 25.6552 47.6742 26.2351 47.0944L47.0944 26.235C47.6744 25.6549 48.0001 24.8681 48.0001 24.0478C48.0001 23.2275 47.6744 22.4408 47.0944 21.8606" fill="#DE4C36"/>
</g>
<defs>
<clipPath id="clip0_2_162">
<rect width="48" height="48" fill="white"/>
</clipPath>
</defs>
</svg>
