<svg width="48" height="48" viewBox="0 0 48 48" fill="none" xmlns="http://www.w3.org/2000/svg">
<g clip-path="url(#clip0_2_135)">
<path d="M4.35398 42.4615L0 0H47.8938L43.5398 42.4615L23.8938 47.2615" fill="#E34F26"/>
<path d="M24 43.5693L39.823 39.7846L43.5398 3.41541H24" fill="#EF652A"/>
<path d="M24.0001 19.2H16.0355L15.5045 13.8461H24.0001V8.67688H8.92041L10.5133 24.4615H24.0001V19.2ZM24.0001 32.7692L17.2036 31.2L16.7788 27.0461H10.8319L11.5753 35.2615L24.0001 38.2153V32.7692Z" fill="#181B21"/>
<path d="M24 24.4615H31.3274L30.5841 31.2L24 32.7692V38.2153L36.2124 35.2615L37.9115 19.2H24V24.4615ZM24 8.67688V13.8461H38.4425L38.9735 8.67688H24Z" fill="#23272F"/>
</g>
<defs>
<clipPath id="clip0_2_135">
<rect width="48" height="48" fill="white"/>
</clipPath>
</defs>
</svg>
