<svg width="48" height="48" viewBox="0 0 48 48" fill="none" xmlns="http://www.w3.org/2000/svg">
<g clip-path="url(#clip0_2_153)">
<path d="M44.9999 23.576C45.0045 22.9515 44.8624 22.3332 44.583 21.762C44.3037 21.1909 43.8933 20.68 43.3793 20.2631C42.8652 19.8462 42.2591 19.5328 41.6011 19.3437C40.9431 19.1546 40.2482 19.094 39.5624 19.1661L46.3124 1.0177H17.4374L24.1874 19.1661C23.5164 19.1193 22.8419 19.1986 22.2065 19.3992C21.571 19.5997 20.9884 19.9171 20.4952 20.3314C20.002 20.7457 19.609 21.2478 19.3409 21.8062C19.0728 22.3646 18.9354 22.9672 18.9374 23.576C18.9374 25.6113 20.4374 27.3075 22.4999 27.8163C20.0196 31.6204 16.1855 34.5505 11.6249 36.1272C8.62489 34.7704 7.31239 31.5477 8.43739 28.834L8.99989 27.9859C10.084 27.7506 11.0463 27.1863 11.7262 26.387C12.4061 25.5878 12.7626 24.6018 12.7363 23.5936C12.71 22.5853 12.3024 21.6157 11.5815 20.8463C10.8607 20.077 9.87005 19.5544 8.77484 19.3657C7.67963 19.177 6.546 19.3335 5.56295 19.8093C4.5799 20.2851 3.80682 21.0513 3.3726 21.9802C2.93838 22.909 2.86925 23.9445 3.17675 24.9139C3.48424 25.8834 4.14977 26.7281 5.06239 27.3075C3.74989 29.682 2.06239 32.3958 1.49989 35.4488C0.749893 39.0106 1.49989 42.9117 4.87489 45.1166C13.1249 50.205 21.9374 42.0636 31.1249 39.8587C34.4999 39.1802 38.2499 39.3499 41.2499 37.6537C43.4999 36.6361 44.9999 34.6007 45.3749 32.3958C45.7499 30.3605 45.1874 28.1555 43.6874 26.4594C44.4374 25.6113 44.9999 24.5937 44.9999 23.576Z" fill="#99425B"/>
<path d="M44.2501 32.2261C43.8751 34.0919 42.5626 35.788 40.6876 36.8057C38.8126 37.6537 36.7501 37.9929 34.5001 38.3322L30.9376 38.841C27.7501 39.5194 24.5626 40.8763 21.5626 42.2332C15.5626 44.947 10.5001 47.3216 5.62506 44.2686C2.06256 42.0636 2.25006 37.8233 2.62506 35.6184C3.00006 33.583 4.12506 31.5477 5.06256 29.682L5.62506 28.8339L7.12506 29.1731C6.18756 32.2261 7.68756 35.4488 11.0626 37.1449L11.6251 37.3145L12.0001 37.1449C14.8126 36.2968 17.2501 34.9399 19.3126 33.0742C20.8126 31.8869 21.9376 30.53 23.0626 29.0035C24.6772 29.1972 26.3111 28.8072 27.6098 27.9182C28.9086 27.0291 29.7674 25.7126 30.0001 24.2544H33.9376C34.0793 25.1944 34.4828 26.0865 35.1103 26.8467C35.7377 27.6069 36.5685 28.2104 37.5246 28.6004C38.4806 28.9904 39.5306 29.1542 40.5759 29.0764C41.6211 28.9986 42.6274 28.6817 43.5001 28.1555C44.2501 29.3428 44.4376 30.8693 44.2501 32.2261ZM7.87506 20.1837C8.86963 20.1837 9.82345 20.5411 10.5267 21.1773C11.23 21.8135 11.6251 22.6763 11.6251 23.576C11.6251 24.4756 11.23 25.3385 10.5267 25.9746C9.82345 26.6108 8.86963 26.9682 7.87506 26.9682C6.8805 26.9682 5.92667 26.6108 5.22341 25.9746C4.52015 25.3385 4.12506 24.4756 4.12506 23.576C4.12506 22.6763 4.52015 21.8135 5.22341 21.1773C5.92667 20.5411 6.8805 20.1837 7.87506 20.1837ZM20.2501 23.576C20.2501 22.6763 20.6452 21.8135 21.3484 21.1773C22.0517 20.5411 23.0055 20.1837 24.0001 20.1837C24.9946 20.1837 25.9485 20.5411 26.6517 21.1773C27.355 21.8135 27.7501 22.6763 27.7501 23.576C27.7501 24.4756 27.355 25.3385 26.6517 25.9746C25.9485 26.6108 24.9946 26.9682 24.0001 26.9682C23.0055 26.9682 22.0517 26.6108 21.3484 25.9746C20.6452 25.3385 20.2501 24.4756 20.2501 23.576ZM35.8126 19.5053C34.8751 20.1837 34.3126 21.2014 34.1251 22.0495H29.8126C29.6251 21.0318 28.8751 20.1837 27.9376 19.5053L31.8751 12.3816L35.8126 19.5053ZM19.1251 2.20495H44.6251L38.6251 18.1484L37.8751 18.318L31.8751 7.4629L25.8751 18.318L25.1251 18.1484L19.1251 2.20495ZM43.6876 23.576C43.6876 24.4756 43.2925 25.3385 42.5892 25.9746C41.886 26.6108 40.9321 26.9682 39.9376 26.9682C39.1959 26.9682 38.4709 26.7692 37.8542 26.3965C37.2375 26.0238 36.7568 25.494 36.473 24.8741C36.1892 24.2543 36.1149 23.5722 36.2596 22.9142C36.4043 22.2562 36.7615 21.6517 37.2859 21.1773C37.8104 20.7029 38.4785 20.3798 39.206 20.2489C39.9334 20.118 40.6874 20.1852 41.3726 20.442C42.0578 20.6987 42.6435 21.1335 43.0556 21.6914C43.4676 22.2492 43.6876 22.9051 43.6876 23.576ZM46.1251 23.576C46.1251 20.8622 43.8751 18.6572 41.0626 18.1484L48.0001 0H15.7501L22.6876 18.1484C21.4898 18.3798 20.3949 18.9276 19.5416 19.7223C18.6882 20.5171 18.1148 21.523 17.8939 22.6128C17.6731 23.7025 17.8147 24.8271 18.3009 25.844C18.7871 26.8609 19.596 27.7244 20.6251 28.3251C18.4367 31.2383 15.3814 33.5316 11.8126 34.9399C9.56256 33.583 8.62506 31.3781 9.56256 29.3428L9.75006 29.1731L9.93756 28.8339C11.2106 28.4439 12.3085 27.6895 13.0655 26.6848C13.8224 25.6802 14.1971 24.4799 14.133 23.2654C14.0688 22.051 13.5693 20.8885 12.7099 19.9537C11.8505 19.0189 10.678 18.3627 9.3697 18.0842C8.06139 17.8058 6.68843 17.9202 5.45842 18.4103C4.22841 18.9004 3.20825 19.7394 2.5522 20.8005C1.89616 21.8617 1.6399 23.0872 1.82219 24.2917C2.00448 25.4963 2.6154 26.6144 3.56256 27.477L2.81256 28.8339C1.87506 30.6996 0.750063 32.9046 0.187563 35.2792C-0.562437 40.0283 0.750063 43.9293 4.31256 45.9647C6.37506 47.3216 8.43756 47.8304 10.6876 47.8304C14.6251 47.8304 18.7501 45.9647 22.6876 44.2686C25.5001 42.9117 28.5001 41.5548 31.5001 41.0459L34.8751 40.3675C37.3126 40.1979 39.7501 39.8587 41.8126 38.6714C42.9492 38.0949 43.9437 37.3143 44.7348 36.3776C45.5259 35.4409 46.097 34.3678 46.4131 33.2241C46.7291 32.0805 46.7835 30.8905 46.5727 29.7273C46.362 28.564 45.8906 27.4519 45.1876 26.4594C45.7501 25.6113 46.1251 24.5936 46.1251 23.576Z" fill="white"/>
</g>
<defs>
<clipPath id="clip0_2_153">
<rect width="48" height="48" fill="white"/>
</clipPath>
</defs>
</svg>
