<svg width="48" height="48" viewBox="0 0 48 48" fill="none" xmlns="http://www.w3.org/2000/svg">
<g clip-path="url(#clip0_2_127)">
<path d="M0 0H48V48H0V0Z" fill="#F0DB4F"/>
<path d="M44.0715 36.552C43.7201 34.3619 42.292 32.5231 38.0624 30.8076C36.5932 30.1323 34.9551 29.6487 34.4669 28.5353C34.2935 27.8874 34.2707 27.5224 34.3802 27.13C34.6951 25.857 36.2144 25.46 37.419 25.825C38.1947 26.0851 38.9293 26.6829 39.3719 27.6365C41.4433 26.2951 41.4388 26.3041 42.8852 25.3825C42.3559 24.5612 42.073 24.1825 41.7262 23.8312C40.4806 22.4395 38.7833 21.7232 36.0684 21.7779C35.5985 21.8373 35.124 21.9011 34.654 21.9605C33.2989 22.3027 32.0076 23.0144 31.2502 23.9681C28.9779 26.546 29.6259 31.0585 32.3909 32.9156C35.1148 34.9597 39.1163 35.4251 39.6274 37.3369C40.1247 39.6776 37.9073 40.4349 35.7034 40.1658C34.0791 39.8281 33.1757 39.0023 32.1992 37.5011C30.4016 38.5414 30.4016 38.5414 28.5537 39.6046C28.9917 40.5627 29.4525 40.9962 30.1871 41.8266C33.6639 45.3536 42.365 45.1802 43.9255 39.8418C43.9893 39.6593 44.4092 38.4365 44.0715 36.552ZM26.0943 22.0608H21.6046C21.6046 25.9391 21.5864 29.7901 21.5864 33.6684C21.5864 36.1368 21.7141 38.4 21.3126 39.0935C20.6556 40.4577 18.9537 40.2889 18.178 40.0242C17.3886 39.6364 16.9871 39.0843 16.5217 38.3041C16.394 38.0806 16.2981 37.9072 16.2662 37.8935C15.048 38.6372 13.8342 39.3855 12.616 40.1292C13.2229 41.3749 14.1171 42.4562 15.2624 43.1588C16.9734 44.1855 19.273 44.5003 21.6776 43.9482C23.2426 43.4919 24.5932 42.5475 25.3004 41.1102C26.3224 39.2258 26.1034 36.9444 26.0943 34.4212C26.1171 30.3057 26.0943 26.1901 26.0943 22.0608Z" fill="#23272F"/>
</g>
<defs>
<clipPath id="clip0_2_127">
<rect width="48" height="48" fill="white"/>
</clipPath>
</defs>
</svg>
