<svg width="48" height="48" viewBox="0 0 48 48" fill="none" xmlns="http://www.w3.org/2000/svg">
<g clip-path="url(#clip0_56_13)">
<path d="M27.635 12.9004L27.5868 0H20.3652L20.4134 12.9004L24.0241 17.8401L27.635 12.9004ZM20.4134 35.0086V47.957H27.635V35.0086L24.0241 30.0691L20.4134 35.0086Z" fill="white"/>
<path d="M27.6349 35.0087L35.2418 45.4633L41.0672 41.2431L33.4604 30.7886L27.6349 28.9181V35.0087ZM20.4134 12.9005L12.7583 2.4458L6.93286 6.66607L14.5397 17.1207L20.4134 18.991V12.9005Z" fill="#00F2E6"/>
<path d="M14.5397 17.1207L2.21456 13.1403L0 19.9501L12.3249 23.9785L18.1504 22.0602L14.5397 17.1207ZM29.8496 25.8489L33.4603 30.7886L45.7854 34.7688L48 27.959L35.6751 23.9785L29.8496 25.8489Z" fill="#00B9F1"/>
<path d="M35.6751 23.9785L48 19.9501L45.7854 13.1403L33.4603 17.1207L29.8496 22.0602L35.6751 23.9785ZM12.3249 23.9785L0 27.959L2.21456 34.7688L14.5397 30.7886L18.1504 25.8489L12.3249 23.9785Z" fill="#D63AFF"/>
<path d="M14.5397 30.7886L6.93286 41.2431L12.7583 45.4633L20.4134 35.0087V28.9181L14.5397 30.7886ZM33.4604 17.1207L41.0672 6.66607L35.2418 2.4458L27.6349 12.9005V18.991L33.4604 17.1207Z" fill="#FB015B"/>
</g>
<defs>
<clipPath id="clip0_56_13">
<rect width="48" height="48" fill="white"/>
</clipPath>
</defs>
</svg>
