<svg width="48" height="48" viewBox="0 0 48 48" fill="none" xmlns="http://www.w3.org/2000/svg">
<g clip-path="url(#clip0_55_8)">
<path d="M25.2981 0.300948C24.4836 -0.100641 23.5164 -0.100641 22.7019 0.300948L1.27256 11.1452C0.458063 11.5468 0 12.3054 0 13.1086V34.8414C0 35.6447 0.509063 36.4034 1.27256 36.8049L22.7019 47.649C23.5164 48.0508 24.4836 48.0508 25.2981 47.649L46.7274 36.8049C47.5419 36.4034 48 35.6447 48 34.8414V13.1086C48 12.3054 47.4909 11.5468 46.7274 11.1452L25.2981 0.300948Z" fill="url(#paint0_linear_55_8)"/>
<mask id="mask0_55_8" style="mask-type:luminance" maskUnits="userSpaceOnUse" x="0" y="-1" width="48" height="49">
<path d="M25.2981 0.300948C24.4836 -0.100641 23.5164 -0.100641 22.7019 0.300948L1.27256 11.1452C0.458063 11.5468 0 12.3054 0 13.1086V34.8414C0 35.6447 0.509063 36.4034 1.27256 36.8049L22.7019 47.649C23.5164 48.0508 24.4836 48.0508 25.2981 47.649L46.7274 36.8049C47.5419 36.4034 48 35.6447 48 34.8414V13.1086C48 12.3054 47.4909 11.5468 46.7274 11.1452L25.2981 0.300948Z" fill="white"/>
</mask>
<g mask="url(#mask0_55_8)">
<path d="M46.7784 11.1452L25.2468 0.301316C25.0432 0.21222 24.7888 0.122959 24.5851 0.0782471L0.458008 36.3143C0.661633 36.5374 0.916258 36.7159 1.17051 36.8499L22.7019 47.6939C23.3128 48.0062 24.0254 48.0955 24.6871 47.917L47.3381 11.5915C47.1853 11.413 46.9818 11.2792 46.7782 11.1454L46.7784 11.1452Z" fill="url(#paint1_linear_55_8)"/>
</g>
<mask id="mask1_55_8" style="mask-type:luminance" maskUnits="userSpaceOnUse" x="0" y="-1" width="48" height="49">
<path d="M25.2981 0.300948C24.4836 -0.100641 23.5164 -0.100641 22.7019 0.300948L1.27256 11.1452C0.458063 11.5468 0 12.3054 0 13.1086V34.8414C0 35.6447 0.509063 36.4034 1.27256 36.8049L22.7019 47.649C23.5164 48.0508 24.4836 48.0508 25.2981 47.649L46.7274 36.8049C47.5419 36.4034 48 35.6447 48 34.8414V13.1086C48 12.3054 47.4909 11.5468 46.7274 11.1452L25.2981 0.300948Z" fill="white"/>
</mask>
<g mask="url(#mask1_55_8)">
<path d="M46.8293 36.8052C47.4402 36.4928 47.8983 35.9573 48.1019 35.3772L24.4836 0.0335497C23.8728 -0.0557105 23.2111 -0.0111626 22.6512 0.301166L1.27246 11.1008L24.331 47.9619C24.6363 47.9172 24.9927 47.8279 25.2982 47.6939L46.8293 36.8053V36.8052Z" fill="url(#paint2_linear_55_8)"/>
</g>
</g>
<defs>
<linearGradient id="paint0_linear_55_8" x1="3273.02" y1="838.511" x2="1338.55" y2="4305.5" gradientUnits="userSpaceOnUse">
<stop stop-color="#41873F"/>
<stop offset="0.3288" stop-color="#418B3D"/>
<stop offset="0.6352" stop-color="#419637"/>
<stop offset="0.9319" stop-color="#3FA92D"/>
<stop offset="1" stop-color="#3FAE2A"/>
</linearGradient>
<linearGradient id="paint1_linear_55_8" x1="2029.29" y1="2644.31" x2="7534.18" y2="-767.096" gradientUnits="userSpaceOnUse">
<stop offset="0.1376" stop-color="#41873F"/>
<stop offset="0.4032" stop-color="#54A044"/>
<stop offset="0.7136" stop-color="#66B848"/>
<stop offset="0.9081" stop-color="#6CC04A"/>
</linearGradient>
<linearGradient id="paint2_linear_55_8" x1="-204.262" y1="2398.3" x2="4754.41" y2="2398.3" gradientUnits="userSpaceOnUse">
<stop offset="0.09192" stop-color="#6CC04A"/>
<stop offset="0.2864" stop-color="#66B848"/>
<stop offset="0.5968" stop-color="#54A044"/>
<stop offset="0.8624" stop-color="#41873F"/>
</linearGradient>
<clipPath id="clip0_55_8">
<rect width="48" height="48" fill="white"/>
</clipPath>
</defs>
</svg>
