<svg width="48" height="48" viewBox="0 0 48 48" fill="none" xmlns="http://www.w3.org/2000/svg">
<g clip-path="url(#clip0_56_8)">
<path d="M47.8125 28.7272C47.4375 27.8181 46.6875 27.2727 45.75 27.0909L44.25 27.2727L41.625 27.6363C43.875 24 45.75 19.8181 46.6875 15.8181C48.375 9.63633 47.625 6.72724 46.5 5.45451C45.132 3.73263 43.3693 2.3433 41.3515 1.39655C39.3338 0.449801 37.1164 -0.0283506 34.875 -3.23578e-05C32.25 -3.23578e-05 29.8125 0.545422 28.6875 0.909059L25.125 0.545422C22.875 0.545422 20.625 1.09088 18.9375 1.99997L14.625 0.909059C10.3125 0.363604 6.75003 0.909058 4.31253 2.54542C1.31253 4.72724 -0.187468 8.3636 3.23001e-05 13.4545C0.840625 19.5528 2.6099 25.4963 5.25003 31.0909C6.56253 33.6363 7.87503 35.0909 9.56253 35.4545C10.5 35.8181 12 36 13.6875 34.7272L14.625 35.4545L16.3125 36C18.375 36.5454 20.4375 36.3636 22.125 35.8181C22.1299 36.4242 22.1299 37.0303 22.125 37.6363C22.118 39.6711 22.4342 41.6949 23.0625 43.6363C23.25 44.3636 23.8125 45.6363 24.75 46.5454C25.875 47.6363 27.1875 48 28.5 48L30.1875 47.8181C32.0625 47.4545 34.125 46.7272 35.625 44.7272C37.125 42.7272 37.6875 39.8181 37.875 35.0909V34.7272L38.0625 34.3636L38.25 34.5454H38.4375C40.3125 34.5454 42.5625 34.1818 44.0625 33.4545C45 33.0909 48.5625 31.2727 47.8125 28.7272Z" fill="black"/>
<path d="M44.6251 29.2728C39.0001 30.3637 38.6251 28.5455 38.6251 28.5455C44.6251 20.0001 47.0626 9.27279 44.8126 6.72733C39.0001 -0.545397 29.0626 2.90915 28.8751 2.90915L25.1251 2.54551C22.5001 2.54551 20.6251 3.27278 19.1251 4.36369C19.1251 4.36369 1.31259 -2.90903 2.06259 13.2728C2.25009 16.7273 7.31259 39.2728 13.1251 32.5455L17.2501 27.8182C18.3751 28.5455 19.5001 28.9091 20.8126 28.7273H21.0001V29.6364C19.5001 31.2728 19.8751 31.4546 16.8751 32.1819C13.8751 32.7273 15.5626 33.8182 16.8751 34.1819C18.1876 34.5455 21.5626 34.9092 23.6251 32.0001V32.3637C24.1876 32.7273 24.5626 35.2728 24.5626 37.6364C24.3751 39.8182 24.3751 41.4546 24.9376 42.5455C25.3126 43.8182 25.8751 46.5455 29.8126 45.8182C33.0001 45.091 34.8751 43.2728 35.0626 40.3637C35.2501 38.1819 35.6251 38.5455 35.6251 36.7273L35.8126 35.8182C36.1876 32.9092 36.0001 32.0001 38.0626 32.3637L38.4376 32.5455C39.9376 32.5455 42.0001 32.1819 43.1251 31.6364C45.5626 30.5455 47.0626 28.7273 44.6251 29.2728Z" fill="#336791"/>
<path d="M20.25 14.9091H19.125L18.9375 15.2727L19.125 15.8182C19.3125 16.1818 19.6875 16.3636 20.0625 16.3636H20.25C20.8125 16.3636 21.375 16 21.375 15.6364C21.5625 15.2727 20.8125 14.9091 20.25 14.9091ZM36.9375 14.9091C36.9375 14.5454 36.1875 14.3636 35.625 14.5454C35.0625 14.5454 34.5 14.7273 34.5 15.0909C34.6875 15.4545 35.0625 15.8182 35.625 15.8182H35.8125L36.5625 15.4545L36.9375 14.9091Z" fill="white"/>
<path d="M46.5 29.0909C46.3125 28.5455 45.5625 28.1819 44.4375 28.5455C41.0625 29.0909 39.9375 28.7273 39.375 28.3637C42 24.5455 44.25 19.8182 45.375 15.4546C45.9375 13.4546 46.3125 11.4546 46.3125 10C46.3125 8.18186 45.9375 6.90913 45.375 6.18186C44.114 4.60975 42.49 3.34658 40.6338 2.49395C38.7775 1.64133 36.7409 1.22305 34.6875 1.27276C31.6875 1.27276 29.0625 2.00004 28.5 2.36367C27.5625 2.00004 26.25 1.81822 25.125 1.81822C22.6875 1.81822 20.8125 2.36367 19.125 3.45458C18.375 3.09095 16.5 2.54549 14.25 2.18186C10.3125 1.6364 7.31254 2.00004 5.06254 3.6364C2.43754 5.45458 1.12504 8.72731 1.50004 13.2728C1.50004 14.7273 2.43754 19.6364 3.93754 24.1819C5.81254 30.1819 7.87504 33.4546 9.93754 34.1819L10.875 34.3637C11.625 34.3637 12.5625 34 13.5 32.7273L17.4375 28.7273C18.1875 29.0909 19.125 29.2728 20.0625 29.2728V29.4546L19.6875 30C18.9375 30.9091 18.75 30.9091 16.6875 31.4546C16.125 31.4546 14.4375 31.8182 14.4375 32.9091C14.4375 34.1819 16.3125 34.7273 16.5 34.7273L18.75 34.9091C20.4375 34.9091 21.9375 34.3637 23.25 33.4546C23.0625 37.6364 23.25 41.8182 23.8125 43.0909C24.375 44.1819 25.3125 46.7273 28.6875 46.7273L30.375 46.5455C33.75 45.8182 35.25 44.3637 35.8125 41.0909L36.9375 32.9091L39 33.0909C40.5 33.0909 42.1875 32.7273 43.3125 32.1819C44.625 31.6364 46.875 30.3637 46.5 29.0909ZM38.25 14L38.0625 15.8182L37.6875 18L37.875 20.5455C38.0625 22.1819 38.4375 24 37.5 25.6364L37.125 24.9091L36.5625 23.8182C35.25 21.6364 32.4375 16.7273 33.9375 14.7273C34.3125 14.1819 35.4375 13.6364 38.25 14ZM34.875 2.72731C38.8125 2.72731 42 4.18186 44.25 6.90913C45.9375 9.09095 44.0625 18.7273 38.625 27.0909L38.4375 26.9091C39.75 24.5455 39.5625 22.3637 39.375 20.3637L39.1875 18L39.375 16C39.549 15.0401 39.6119 14.0644 39.5625 13.0909C39.5625 12.1819 38.4375 9.45458 36.1875 6.90913C35.0625 5.6364 33.1875 4.00004 30.9375 3.09095L34.875 2.72731ZM12.5625 32C11.4375 33.2728 10.6875 33.0909 10.3125 32.9091C8.81254 32.3637 6.75004 29.0909 5.25004 23.6364C3.75004 19.0909 2.81254 14.5455 2.81254 13.2728C2.62504 9.09095 3.56254 6.18186 5.81254 4.72731C9.56254 2.18186 15.5625 3.6364 17.8125 4.36367V4.54549C13.875 8.36367 13.875 14.9091 13.875 15.4546V16C14.0625 17.2728 14.25 19.2728 13.875 21.6364C13.6929 22.7669 13.8031 23.9236 14.1958 25.0026C14.5885 26.0815 15.2514 27.0491 16.125 27.8182L12.5625 32ZM16.6875 26.5455C15.5625 25.2728 15 23.6364 15.1875 21.8182C15.5625 19.2728 15.375 17.0909 15.375 16V15.6364C15.9375 15.0909 18.5625 13.6364 20.4375 14.1819C21.375 14.3637 21.9375 14.9091 22.125 15.8182C23.25 20.9091 22.3125 23.0909 21.375 24.9091L21 25.8182L20.8125 26.1819L20.25 28C18.9375 28 17.625 27.4546 16.6875 26.5455ZM16.875 33.4546L15.9375 33.0909L17.0625 32.7273C19.5 32.1819 19.875 31.8182 20.625 30.9091L21.375 30C21.9375 29.4546 22.125 29.6364 22.5 29.8182C22.6875 29.8182 23.0625 30.1819 23.25 30.7273L23.0625 31.4546C21.375 33.8182 18.75 33.8182 16.875 33.4546ZM30 45.2728C27 45.8182 25.875 44.3637 25.125 42.5455C24.4573 38.5191 24.2686 34.4318 24.5625 30.3637C24.1875 29.4546 23.625 28.7273 23.0625 28.5455C22.6875 28.3637 22.125 28.1819 21.5625 28.3637L22.125 26.5455L22.3125 26.3637L22.6875 25.4546C23.625 23.6364 24.75 21.0909 23.4375 15.6364C23.0625 13.4546 21.375 12.5455 19.125 12.7273C17.8006 12.9072 16.5261 13.3398 15.375 14C15.5625 11.8182 16.3125 8.00004 18.75 5.45458C20.4375 4.00004 22.5 3.09095 25.125 3.27276C30.1875 3.27276 33.375 5.81822 35.25 8.00004C36.75 9.81822 37.6875 11.6364 38.0625 12.5455C35.4375 12.3637 33.75 12.7273 32.8125 14C30.9375 16.7273 33.9375 22 35.25 24.3637L35.8125 25.4546L37.3125 27.8182L37.6875 28.1819C36.9375 28.5455 35.625 28.9091 35.625 31.4546L34.5 40.7273C33.9375 43.6364 33 44.5455 30 45.2728ZM42.75 31.0909C42 31.4546 40.6875 31.6364 39.375 31.6364C37.875 31.8182 37.3125 31.6364 37.125 31.4546C36.9375 29.8182 37.6875 29.6364 38.25 29.4546H38.625L38.8125 29.6364C39.9375 30.3637 41.8125 30.3637 44.625 29.8182H44.8125L42.75 31.0909Z" fill="white"/>
</g>
<defs>
<clipPath id="clip0_56_8">
<rect width="48" height="48" fill="white"/>
</clipPath>
</defs>
</svg>
