<svg width="48" height="48" viewBox="0 0 48 48" fill="none" xmlns="http://www.w3.org/2000/svg">
<g clip-path="url(#clip0_56_32)">
<path d="M47.6836 36.4675L27.7499 1.50952C27.5022 1.07938 27.1183 0.712545 26.6388 0.447825C26.1593 0.183106 25.6021 0.0303507 25.0261 0.00572449C24.449 -0.0262121 23.8723 0.0731302 23.3589 0.292947C22.8454 0.512765 22.4147 0.844642 22.1137 1.25249L0.493588 30.17C0.164844 30.6066 -0.00635782 31.1116 5.15143e-05 31.6257C0.00646085 32.1399 0.190216 32.6418 0.529776 33.0728L11.0999 46.5903C11.4998 47.0978 12.0876 47.4849 12.7757 47.6938C13.4638 47.9028 14.2152 47.9225 14.918 47.7499L45.5928 40.257C46.0547 40.1455 46.4822 39.9534 46.8464 39.6937C47.2106 39.434 47.5031 39.1127 47.704 38.7516C47.9021 38.3924 48.0031 38.0019 47.9998 37.6072C47.9965 37.2125 47.8891 36.8231 47.6851 36.4662L47.6836 36.4675ZM43.2207 37.9668L17.1914 44.3229C16.3973 44.518 15.6352 43.9496 15.8003 43.2878L25.1 6.51607C25.2738 5.82812 26.4243 5.71912 26.788 6.35581L44.0032 36.5452C44.0793 36.6797 44.1191 36.8262 44.12 36.9747C44.1209 37.1232 44.0828 37.27 44.0083 37.4052C43.9338 37.5403 43.8246 37.6605 43.6885 37.7574C43.5523 37.8543 43.3922 37.9257 43.2194 37.9666L43.2207 37.9668Z" fill="white"/>
</g>
<defs>
<clipPath id="clip0_56_32">
<rect width="48" height="48" fill="white"/>
</clipPath>
</defs>
</svg>
