<svg width="48" height="48" viewBox="0 0 48 48" fill="none" xmlns="http://www.w3.org/2000/svg">
<path d="M24.8762 0C12.1539 0 12.9479 5.59492 12.9479 5.59492L12.9635 11.3915H25.1033V13.1305H8.13861C8.13861 13.1305 0 12.1935 0 25.2129C0 38.229 7.10504 37.7685 7.10504 37.7685H11.3458V31.7273C11.3458 31.7273 11.1172 24.522 18.3381 24.522H30.3777C30.3777 24.522 37.1429 24.6332 37.1429 17.8917V6.74471C37.1429 6.74471 38.1702 0 24.8762 0ZM18.1815 3.89723C18.7609 3.89723 19.3166 4.13064 19.7262 4.54611C20.1359 4.96158 20.3661 5.52508 20.3661 6.11264C20.3661 6.70021 20.1359 7.26371 19.7262 7.67918C19.3166 8.09465 18.7609 8.32806 18.1815 8.32806C17.8945 8.32848 17.6102 8.27146 17.345 8.16027C17.0798 8.04908 16.8388 7.88591 16.6358 7.68011C16.4329 7.47431 16.272 7.22991 16.1624 6.96094C16.0527 6.69196 15.9965 6.40369 15.9969 6.11264C15.9969 4.88821 16.9741 3.89723 18.1815 3.89723Z" fill="url(#paint0_linear_55_5)"/>
<path d="M23.1237 48C35.846 48 35.0521 42.4048 35.0521 42.4048L35.0364 36.608H22.8966V34.8689H39.8597C39.8597 34.8689 47.9999 35.806 47.9999 22.7877C47.9999 9.76936 40.8949 10.2315 40.8949 10.2315H36.6541V16.2714C36.6541 16.2714 36.8827 23.4769 29.6618 23.4769H17.6222C17.6222 23.4769 10.857 23.3658 10.857 30.1076V41.255C10.857 41.255 9.82972 48 23.1237 48ZM29.8184 44.1026C29.5314 44.103 29.2471 44.046 28.9819 43.9348C28.7167 43.8236 28.4757 43.6604 28.2727 43.4546C28.0698 43.2488 27.9089 43.0044 27.7993 42.7354C27.6896 42.4664 27.6334 42.1782 27.6338 41.8871C27.6341 41.4494 27.7624 41.0215 28.0024 40.6577C28.2424 40.2939 28.5833 40.0103 28.9822 39.843C29.381 39.6756 29.8198 39.6319 30.2431 39.7174C30.6664 39.8029 31.0553 40.0137 31.3605 40.3232C31.6657 40.6327 31.8736 41.0271 31.9579 41.4564C32.0421 41.8857 31.999 42.3307 31.834 42.7352C31.669 43.1396 31.3894 43.4854 31.0307 43.7288C30.6719 43.9722 30.25 44.1023 29.8184 44.1026Z" fill="url(#paint1_linear_55_5)"/>
<defs>
<linearGradient id="paint0_linear_55_5" x1="4.81551" y1="4.41813" x2="29.9429" y2="29.279" gradientUnits="userSpaceOnUse">
<stop stop-color="#387EB8"/>
<stop offset="1" stop-color="#366994"/>
</linearGradient>
<linearGradient id="paint1_linear_55_5" x1="17.9464" y1="17.9024" x2="44.917" y2="43.381" gradientUnits="userSpaceOnUse">
<stop stop-color="#FFE052"/>
<stop offset="1" stop-color="#FFC331"/>
</linearGradient>
</defs>
</svg>
