<svg width="50" height="48" viewBox="0 0 50 48" fill="none" xmlns="http://www.w3.org/2000/svg">
<g clip-path="url(#clip0_2_125)">
<path d="M41.11 15.5419C40.5778 15.3451 40.0412 15.1628 39.5006 14.9951C39.5914 14.5951 39.675 14.2 39.7492 13.8118C40.9676 7.43681 40.1711 2.30102 37.4506 0.610069C34.8422 -1.01098 30.5764 0.679332 26.2682 4.72081C25.8436 5.11982 25.4284 5.53034 25.023 5.95196C24.7517 5.6716 24.4755 5.39667 24.1947 5.12733C19.6795 0.806069 15.1537 -1.01519 12.4361 0.680595C9.83008 2.3067 9.0584 7.1347 10.1553 13.1764C10.2644 13.7748 10.3876 14.37 10.5248 14.9616C9.88418 15.1579 9.26602 15.3667 8.67441 15.589C3.38066 17.5785 0 20.6962 0 23.9301C0 27.2701 3.6293 30.6202 9.14297 32.6515C9.58997 32.8156 10.0407 32.9675 10.4947 33.1073C10.3473 33.7445 10.2164 34.386 10.1021 35.0311C9.05645 40.968 9.87305 45.6819 12.4721 47.2976C15.1564 48.9663 19.6619 47.2513 24.0488 43.1176C24.4046 42.7816 24.7525 42.436 25.0922 42.0812C25.5312 42.5378 25.9819 42.981 26.4438 43.4105C30.6934 47.352 34.8902 48.9435 37.4867 47.3233C40.1686 45.6499 41.0402 40.5859 39.9086 34.4248C39.8194 33.9421 39.7195 33.4618 39.6088 32.9844C39.9252 32.8833 40.2357 32.7793 40.5385 32.6711C46.2705 30.6242 50 27.3147 50 23.9301C50 20.6844 46.5102 17.5456 41.11 15.5419ZM39.8668 30.4859C39.5934 30.5833 39.3129 30.6774 39.027 30.769C38.3941 28.6096 37.5402 26.3136 36.4951 23.9412C37.4924 21.6254 38.3135 19.3587 38.9285 17.2134C39.44 17.373 39.9363 17.5412 40.4148 17.7187C45.0418 19.4358 47.8641 21.9741 47.8641 23.9301C47.8641 26.0134 44.816 28.7181 39.8668 30.4859ZM37.8133 34.872C38.3137 37.5962 38.385 40.0593 38.0535 41.985C37.7559 43.7153 37.157 44.8688 36.4164 45.3309C34.8408 46.3141 31.4711 45.0362 27.8369 41.6652C27.4073 41.2659 26.9881 40.8538 26.5797 40.4294C27.9887 38.7686 29.3967 36.8379 30.7709 34.6934C33.1881 34.4623 35.4717 34.0842 37.5426 33.5682C37.6445 34.0118 37.7352 34.4467 37.8133 34.872ZM17.0461 45.161C15.5066 45.7469 14.2805 45.7638 13.5393 45.3031C11.9621 44.3227 11.3064 40.5377 12.2008 35.4606C12.3071 34.8607 12.4288 34.264 12.5658 33.6713C14.6139 34.1598 16.8809 34.5109 19.3037 34.7227C20.6873 36.821 22.1359 38.7496 23.5959 40.4385C23.2856 40.7621 22.968 41.0774 22.6434 41.3842C20.7033 43.212 18.7594 44.5088 17.0461 45.161ZM9.83398 30.473C7.3959 29.5747 5.38242 28.4073 4.00234 27.1334C2.76211 25.9888 2.13613 24.8522 2.13613 23.9301C2.13613 21.9675 4.85039 19.4644 9.37754 17.7631C9.92695 17.5568 10.502 17.3621 11.0986 17.1793C11.7244 19.373 12.5451 21.6667 13.5355 23.9861C12.5322 26.3398 11.6998 28.6701 11.068 30.8896C10.6535 30.7617 10.2421 30.6228 9.83398 30.473ZM12.2516 12.7341C11.3119 7.55786 11.9359 3.65323 13.5064 2.67323C15.1791 1.62944 18.8779 3.11765 22.7766 6.84902C23.0308 7.09289 23.2809 7.3417 23.5268 7.59533C22.074 9.2768 20.6387 11.1911 19.2674 13.277C16.9158 13.512 14.6648 13.8892 12.5953 14.3947C12.4678 13.8444 12.3532 13.2906 12.2516 12.7341ZM33.8193 18.4747C33.3305 17.5646 32.8236 16.6659 32.2988 15.7793C33.8941 15.9968 35.4227 16.2854 36.858 16.6383C36.4271 18.1271 35.89 19.6835 35.2578 21.2793C34.7957 20.3342 34.3161 19.3992 33.8193 18.4747ZM25.024 9.24081C26.0092 10.3913 26.9959 11.6758 27.9664 13.0694C25.9977 12.9692 24.0256 12.9688 22.0568 13.0682C23.0283 11.6873 24.0234 10.4046 25.024 9.24081ZM16.1723 18.4905C15.6817 19.4075 15.2111 20.3367 14.7607 21.2774C14.1389 19.6873 13.6066 18.1238 13.1721 16.6139C14.5986 16.2699 16.1199 15.9886 17.7051 15.7751C17.1745 16.6671 16.6634 17.5726 16.1723 18.4905ZM17.7506 32.2488C16.1129 32.0518 14.5688 31.785 13.1426 31.4503C13.584 29.9134 14.1279 28.3166 14.7633 26.6924C15.2154 27.6338 15.688 28.5636 16.1807 29.481C16.6873 30.4242 17.2119 31.348 17.7506 32.2488ZM25.083 38.7814C24.0705 37.6042 23.0607 36.3017 22.0746 34.9008C23.032 34.9412 24.008 34.9619 25 34.9619C26.0191 34.9619 27.0266 34.9372 28.0182 34.8896C27.0445 36.3158 26.0615 37.6202 25.083 38.7814ZM35.2779 26.6094C35.9463 28.2515 36.5096 29.84 36.9568 31.3505C35.5072 31.7071 33.942 31.9943 32.2928 32.2075C32.8212 31.3045 33.333 30.3902 33.8277 29.4652C34.3307 28.525 34.8143 27.5728 35.2779 26.6094ZM31.9775 28.3149C31.2202 29.7331 30.4202 31.1244 29.5789 32.4865C28.055 32.6028 26.5277 32.6606 25 32.6598C23.4439 32.6598 21.9305 32.6075 20.473 32.5056C19.6098 31.1467 18.7946 29.753 18.0291 28.3275C17.2672 26.9097 16.5558 25.4611 15.8959 23.985C16.5541 22.5086 17.2636 21.0593 18.0229 19.6404L18.0227 19.6406C18.7816 18.2213 19.5904 16.8335 20.4471 15.4804C21.934 15.3591 23.4588 15.296 24.9998 15.296C26.5479 15.296 28.0748 15.3598 29.5613 15.4819C30.4094 16.833 31.2129 18.216 31.9705 19.6282C32.7323 21.044 33.4512 22.4862 34.126 23.9524C33.4581 25.4336 32.7415 26.8887 31.9775 28.3149ZM36.3838 2.60459C38.058 3.64544 38.7092 7.8427 37.6572 13.3469C37.59 13.6981 37.5146 14.0558 37.4326 14.4185C35.358 13.9023 33.1055 13.5185 30.7471 13.28C29.3732 11.1711 27.9496 9.25386 26.5205 7.59407C26.895 7.20491 27.2785 6.82585 27.6705 6.45723C31.3619 2.9947 34.8119 1.62754 36.3838 2.60459ZM25 19.1174C27.4658 19.1174 29.4648 21.2722 29.4648 23.9301C29.4648 26.588 27.4658 28.7427 25 28.7427C22.5342 28.7427 20.5352 26.588 20.5352 23.9301C20.5352 21.2722 22.5342 19.1174 25 19.1174Z" fill="#00D8FF"/>
</g>
<defs>
<clipPath id="clip0_2_125">
<rect width="50" height="48" fill="white"/>
</clipPath>
</defs>
</svg>
