<svg width="48" height="48" viewBox="0 0 48 48" fill="none" xmlns="http://www.w3.org/2000/svg">
<g clip-path="url(#clip0_2_120)">
<path d="M33.2589 32.9499C35.0302 32.7666 36.3741 31.2396 36.3129 29.4069C36.252 27.5745 34.7248 26.1084 32.8924 26.1084H32.7703C30.8766 26.1696 29.4107 27.7577 29.4718 29.6512C29.5329 30.5676 29.8993 31.3616 30.4491 31.9114C28.3723 36.0041 25.1961 38.9972 20.4317 41.5016C17.1943 43.212 13.8349 43.8229 10.4754 43.3954C7.72669 43.0288 5.58881 41.8073 4.24481 39.7913C2.29031 36.7982 2.10712 33.5606 3.75637 30.3232C4.917 28.002 6.74925 26.2916 7.90987 25.4364C7.66556 24.6424 7.299 23.2986 7.11581 22.3213C-1.74113 28.7351 -0.824815 37.4091 1.86281 41.5016C3.87844 44.556 7.971 46.4496 12.4911 46.4496C13.7126 46.4496 14.9342 46.3273 16.1559 46.0221C23.9745 44.4949 29.8995 39.8524 33.2589 32.9499ZM44.0094 25.3755C39.3671 19.9389 32.526 16.9459 24.7074 16.9459H23.7302C23.1804 15.8464 22.0198 15.1132 20.7371 15.1132H20.6149C18.7215 15.1744 17.2556 16.7625 17.3166 18.6562C17.3777 20.4887 18.9047 21.9548 20.7371 21.9548H20.8592C22.203 21.8936 23.3636 21.0384 23.8522 19.8778H24.9517C29.5941 19.8778 33.9919 21.2216 37.9624 23.8483C41.0164 25.8641 43.2154 28.4908 44.4369 31.6671C45.4753 34.2326 45.4142 36.7371 44.3147 38.8751C42.6045 42.1125 39.7337 43.884 35.9466 43.884C33.5032 43.884 31.1822 43.1509 29.9604 42.6011C29.2886 43.212 28.0669 44.1893 27.2117 44.8003C29.8384 46.0219 32.526 46.6939 35.0914 46.6939C40.9552 46.6939 45.2921 43.4563 46.9414 40.2189C48.7127 36.6759 48.5904 30.5676 44.0094 25.3755ZM12.9797 33.9881C13.0408 35.8208 14.5678 37.2866 16.4002 37.2866H16.5225C18.4161 37.2257 19.8819 35.6374 19.8208 33.7438C19.7599 31.9112 18.2327 30.4453 16.4002 30.4453H16.2782C16.1559 30.4453 15.9726 30.4453 15.8507 30.5062C13.3462 26.3526 12.3079 21.8325 12.6744 16.9457C12.9186 13.2806 14.1403 10.1042 16.2782 7.4775C18.0495 5.21738 21.4701 4.11788 23.7913 4.05694C30.2659 3.93469 33.0144 11.9977 33.1978 15.2353C33.9919 15.4185 35.3357 15.8462 36.252 16.1516C35.5189 6.25612 29.4107 1.125 23.547 1.125C18.0495 1.125 12.9797 5.0955 10.9639 10.9596C8.15419 18.7783 9.98662 26.2916 13.4072 32.2168C13.1019 32.6443 12.9186 33.3161 12.9797 33.9881Z" fill="#764ABC"/>
</g>
<defs>
<clipPath id="clip0_2_120">
<rect width="48" height="48" fill="white"/>
</clipPath>
</defs>
</svg>
