<svg width="48" height="48" viewBox="0 0 48 48" fill="none" xmlns="http://www.w3.org/2000/svg">
<g clip-path="url(#clip0_2_91)">
<path d="M41.3438 27.625C39.6563 27.625 38.1563 28.125 36.9376 28.875C36.4688 27.75 36.0938 26.75 36.0001 25.875C35.9063 25 35.8126 24.5 35.9063 23.375C36.0001 22.25 36.4688 20.75 36.4688 20.625C36.4688 20.625 36.3751 20 35.4376 20C34.4063 20 33.5626 20.25 33.4688 20.625L33.0938 22.5C32.9063 23.625 31.2188 27.875 30.1876 30C29.8126 29.125 29.5313 28.375 29.5313 27.875C29.4376 26.875 29.3438 26.375 29.4376 25.25C29.5313 24.125 30.0001 22.75 30.0001 22.625C30.0001 22.5 29.9063 21.875 28.9688 21.875C27.9376 21.875 27.0938 22.125 27.0001 22.5L26.6251 24.375L23.4376 33.875L22.6876 36.125C22.5001 36.625 22.6876 36.125 22.6876 36.25L22.4063 36.875L22.0313 37.5C22.0313 37.5 21.9376 36.625 22.1251 35.5C22.4063 33.125 23.2501 29.375 23.2501 29.125C23.2501 29.125 23.4376 28.5 22.6876 28.125C22.0313 27.75 21.8438 28.375 21.7501 28.375L21.6563 28.5C21.6563 28.5 22.4063 24.25 20.1563 24.25C18.8438 24.25 16.8751 26.375 15.9376 28.125L12.7501 30.5L11.1563 31.625L11.0626 31.5C8.34381 27.625 3.37506 25 3.65631 19.875C3.65631 18 4.21881 13.125 13.1251 7.12505C20.5313 2.25005 26.3438 3.62505 27.3751 6.62505C28.8751 10.875 24.2813 18.75 16.5938 19.875C13.6876 20.25 12.1876 18.75 11.8126 18.25C11.4376 17.625 11.3438 17.625 11.1563 17.75C10.9688 17.875 11.0626 18.375 11.1563 18.75C11.4376 19.5 12.3751 20.875 13.9688 21.625C15.3751 22.25 18.7501 22.625 22.8751 20.5C27.4688 18.125 31.1251 11.5 30.0938 5.87505C28.9688 0.250047 21.9376 -1.62495 15.3751 1.50005C11.3438 3.37505 7.12506 6.37505 4.03131 10.25C0.375062 14.75 -0.187438 18.75 6.19367e-05 20.375C0.937562 26.25 6.93756 30.125 9.37506 32.875L9.09381 33.125C7.87506 34 3.18756 37.25 2.06256 40.625C0.750062 44.5 2.25006 47.25 3.28131 47.625C6.37506 48.875 9.65631 46.75 11.3438 43.375C13.0313 39.875 12.8438 35.375 12.0938 33.375L12.0001 33.25L13.0313 32.5L14.7188 31.25C14.4376 32.375 14.2501 33.625 14.1563 35.5C13.9688 37.625 14.7188 40.5 15.5626 41.625C15.9376 42.125 16.4063 42.125 16.6876 42.125C17.7188 42.125 18.1876 41 18.7501 39.625L19.9688 36.125C19.9688 36.125 19.2188 41.25 21.1876 41.25C21.8438 41.25 22.5938 40.125 22.8751 39.5L22.9688 39.375L23.0626 39.125L24.9376 34.5L27.2813 27.375L27.7501 29.875C27.9376 30.875 28.4063 31.875 28.6876 32.875L28.3126 33.75L27.5626 35C26.6251 36.5 25.4063 38.25 25.3126 38.75C25.1251 39.375 25.1251 39.75 25.5001 40.125C25.7813 40.375 26.2501 40.375 26.7188 40.375L28.4063 39.875L30.0001 38.75C30.9376 37.875 31.5001 36.5 31.4063 34.75C31.4063 33.875 31.1251 32.875 30.8438 32L31.1251 31.5C32.6251 28.625 33.7501 25.375 33.7501 25.375L34.2188 28L35.0626 30.5C33.9436 31.6862 33.072 33.2357 32.5313 35C31.9688 37.125 32.3438 38 33.1876 38.25C33.5626 38.375 34.1251 38.125 34.5001 37.875C34.9688 37.75 35.5313 37.375 36.0938 36.875C37.0313 35.875 37.9688 34.625 37.8751 32.875C37.8751 32.125 37.6876 31.25 37.5001 30.5C38.6251 29.875 40.2188 29.5 42.0938 29.875C46.3126 30.5 47.1563 34 46.9688 35.375C46.7813 36.875 45.9376 37.625 45.6563 37.875L45.2813 38.375C45.3751 38.625 45.4688 38.625 45.7501 38.625C46.0313 38.5 47.9063 37.375 48.0001 34.75C48.0938 31.25 45.6563 27.5 41.3438 27.625ZM9.09381 42C7.78131 44 5.81256 44.875 4.96881 44.125C4.12506 43.5 4.40631 40.5 6.18756 38.375C7.21881 37.125 8.53131 35.875 9.37506 35.125L10.2188 34.5L10.3126 34.375L10.5938 34.25C11.1563 37.25 10.5938 39.875 9.09381 42ZM19.2188 32.875C18.7501 34.5 17.7188 38.5 17.1563 38.25C16.5938 38.125 16.3126 35 16.9688 32C17.3438 30.5 18.1876 28.75 18.6563 28C19.4063 26.875 20.2501 26.5 20.4376 27C20.7188 27.625 19.5001 31.875 19.2188 32.875ZM27.5626 38.25L27.0938 38.375V38.125L28.5938 36L29.4376 34.625V34.75C29.4376 36.5 28.1251 37.75 27.5626 38.25ZM33.9376 36.25C33.7501 36.125 33.8438 35.625 34.3126 34.25C34.5001 33.625 34.9688 32.625 35.7188 31.75L35.9063 32.875C35.9063 35.125 34.6876 35.875 33.9376 36.25Z" fill="#CF649A"/>
</g>
<defs>
<clipPath id="clip0_2_91">
<rect width="48" height="48" fill="white"/>
</clipPath>
</defs>
</svg>
