<svg width="181" height="30" viewBox="0 0 181 30" fill="none" xmlns="http://www.w3.org/2000/svg">
<path d="M5.57078 19.952L0.962781 14.72L5.57078 9.464H11.4748L6.86678 14.72L11.4748 19.952H5.57078ZM23.9887 23L18.6847 15.584V23H13.9807V6.08H18.6847V13.376L23.9407 6.08H29.3647L23.1487 14.288L29.6767 23H23.9887ZM30.6268 16.256C30.6268 14.864 30.8748 13.648 31.3708 12.608C31.8828 11.568 32.5708 10.768 33.4348 10.208C34.3148 9.648 35.2908 9.368 36.3628 9.368C37.2908 9.368 38.0908 9.552 38.7628 9.92C39.4348 10.288 39.9548 10.784 40.3228 11.408V9.536H45.0268V23H40.3228V21.128C39.9548 21.752 39.4268 22.248 38.7388 22.616C38.0668 22.984 37.2748 23.168 36.3628 23.168C35.2908 23.168 34.3148 22.888 33.4348 22.328C32.5708 21.768 31.8828 20.968 31.3708 19.928C30.8748 18.872 30.6268 17.648 30.6268 16.256ZM40.3228 16.256C40.3228 15.392 40.0828 14.712 39.6028 14.216C39.1388 13.72 38.5628 13.472 37.8748 13.472C37.1708 13.472 36.5868 13.72 36.1228 14.216C35.6588 14.696 35.4268 15.376 35.4268 16.256C35.4268 17.12 35.6588 17.808 36.1228 18.32C36.5868 18.816 37.1708 19.064 37.8748 19.064C38.5628 19.064 39.1388 18.816 39.6028 18.32C40.0828 17.824 40.3228 17.136 40.3228 16.256ZM62.2033 9.536L53.6593 29.408H48.5473L51.7633 22.424L46.2433 9.536H51.4753L54.3073 17.168L57.0433 9.536H62.2033ZM71.8578 23L68.1378 17.48V23H63.4338V5.24H68.1378V14.816L71.8578 9.536H77.4978L72.1938 16.304L77.5938 23H71.8578ZM93.4689 9.536L84.9249 29.408H79.8129L83.0289 22.424L77.5089 9.536H82.7409L85.5729 17.168L88.3089 9.536H93.4689ZM105.989 6.08C107.765 6.08 109.317 6.44 110.645 7.16C111.989 7.864 113.021 8.856 113.741 10.136C114.461 11.416 114.821 12.88 114.821 14.528C114.821 16.16 114.453 17.616 113.717 18.896C112.997 20.176 111.965 21.184 110.621 21.92C109.293 22.64 107.749 23 105.989 23H99.2932V6.08H105.989ZM105.629 18.848C107.005 18.848 108.085 18.472 108.869 17.72C109.653 16.968 110.045 15.904 110.045 14.528C110.045 13.136 109.653 12.064 108.869 11.312C108.085 10.544 107.005 10.16 105.629 10.16H103.997V18.848H105.629ZM119.318 8.288C118.486 8.288 117.814 8.064 117.302 7.616C116.806 7.152 116.558 6.576 116.558 5.888C116.558 5.184 116.806 4.6 117.302 4.136C117.814 3.672 118.486 3.44 119.318 3.44C120.134 3.44 120.79 3.672 121.286 4.136C121.798 4.6 122.054 5.184 122.054 5.888C122.054 6.576 121.798 7.152 121.286 7.616C120.79 8.064 120.134 8.288 119.318 8.288ZM121.646 9.536V23H116.942V9.536H121.646ZM130.588 23.168C129.244 23.168 128.036 22.888 126.964 22.328C125.908 21.768 125.076 20.968 124.468 19.928C123.86 18.888 123.556 17.664 123.556 16.256C123.556 14.864 123.86 13.648 124.468 12.608C125.092 11.568 125.932 10.768 126.988 10.208C128.06 9.648 129.268 9.368 130.612 9.368C131.956 9.368 133.156 9.648 134.212 10.208C135.284 10.768 136.124 11.568 136.732 12.608C137.356 13.648 137.668 14.864 137.668 16.256C137.668 17.648 137.356 18.872 136.732 19.928C136.124 20.968 135.284 21.768 134.212 22.328C133.14 22.888 131.932 23.168 130.588 23.168ZM130.588 19.088C131.244 19.088 131.788 18.848 132.22 18.368C132.668 17.872 132.892 17.168 132.892 16.256C132.892 15.344 132.668 14.648 132.22 14.168C131.788 13.688 131.252 13.448 130.612 13.448C129.972 13.448 129.436 13.688 129.004 14.168C128.572 14.648 128.356 15.344 128.356 16.256C128.356 17.184 128.564 17.888 128.98 18.368C129.396 18.848 129.932 19.088 130.588 19.088ZM148.39 9.416C149.942 9.416 151.174 9.936 152.086 10.976C152.998 12 153.454 13.392 153.454 15.152V23H148.75V15.776C148.75 15.008 148.55 14.408 148.15 13.976C147.75 13.528 147.214 13.304 146.542 13.304C145.838 13.304 145.286 13.528 144.886 13.976C144.486 14.408 144.286 15.008 144.286 15.776V23H139.582V9.536H144.286V11.456C144.702 10.848 145.262 10.36 145.966 9.992C146.67 9.608 147.478 9.416 148.39 9.416ZM169.917 0.151999L163.509 27.632H158.973L165.381 0.151999H169.917ZM170.512 9.464H176.392L181 14.72L176.392 19.952H170.512L175.12 14.72L170.512 9.464Z" fill="url(#paint0_linear_2_30)"/>
<defs>
<linearGradient id="paint0_linear_2_30" x1="0" y1="15" x2="182" y2="15" gradientUnits="userSpaceOnUse">
<stop stop-color="#4BEB9E"/>
<stop offset="1" stop-color="#FF9147"/>
</linearGradient>
</defs>
</svg>
